<?xml version="1.0" encoding="UTF-8"?>
<svg width="456px" height="48px" viewBox="0 0 456 48" version="1.1" xmlns="http://www.w3.org/2000/svg" xmlns:xlink="http://www.w3.org/1999/xlink">
    <!-- Generator: Sketch 62 (91390) - https://sketch.com -->
    <title>header</title>
    <desc>Created with Sketch.</desc>
    <g id="Page-1" stroke="none" stroke-width="1" fill="none" fill-rule="evenodd">
        <g id="/Users/developer/Library/Application-Support/CleanShot/media/media_bBkmsSvSVb/CleanShot-2020-05-12-at-01.06.38@2x.png" transform="translate(-14.000000, -67.000000)">
            <g id="header" transform="translate(16.000000, 69.000000)">
                <rect id="Rectangle-Copy-3" stroke="#F06141" stroke-width="4" fill="#F06141" x="73" y="0" width="37" height="4" rx="2"></rect>
                <rect id="Rectangle-Copy-4" stroke="#F06141" stroke-width="4" fill="#F06141" x="0" y="0" width="46" height="4" rx="2"></rect>
                <rect id="Rectangle" stroke="#FFCF0A" stroke-width="4" x="23" y="5" width="63" height="39" rx="1"></rect>
                <rect id="Rectangle" stroke="#FFCF0A" fill="#FFCF0A" x="110" y="21" width="231" height="4" rx="2"></rect>
                <rect id="Rectangle-Copy-2" stroke="#F06141" stroke-width="4" fill="#F06141" x="143" y="0" width="231" height="4" rx="2"></rect>
                <rect id="Rectangle-Copy" stroke="#FFCF0A" fill="#FFCF0A" x="405" y="21" width="48" height="4" rx="2"></rect>
                <g id="shuttle" transform="translate(41.000000, 11.000000)" fill="#FFCF0A" fill-rule="nonzero">
                    <path d="M27.9671916,2.09025124 C27.9065432,0.978020937 27.0219732,0.0935632424 25.9097392,0.0328603399 C23.6654743,-0.0897485856 19.2738508,0.0295244146 15.0745085,2.20153989 C12.9337671,3.30884833 10.6697053,5.18620864 8.86288563,7.35226319 C8.84062782,7.3789506 8.81897158,7.40580206 8.79687784,7.43254415 L4.69641049,7.74929299 C4.02145759,7.80146467 3.42027811,8.15523681 3.04698136,8.71982849 L0.249497942,12.9510942 C-0.0336191492,13.3792958 -0.0786269464,13.9151766 0.12902142,14.3845577 C0.336724474,14.8539935 0.763505579,15.1811329 1.27073197,15.2597186 L4.72539485,15.7947791 C4.71319954,15.8619351 4.70094955,15.9290364 4.68973861,15.9961924 C4.57473084,16.6841587 4.80266826,17.3914842 5.29955872,17.8883183 L10.1116196,22.7004179 C10.5235804,23.1123773 11.0802442,23.3394936 11.6506347,23.3394936 C11.7681034,23.3394936 11.8862283,23.329814 12.0038064,23.3101813 C12.0709627,23.2989704 12.1380642,23.2867204 12.2052204,23.2745251 L12.7402827,26.7292312 C12.8188687,27.2364559 13.1460092,27.6632903 13.6153371,27.870938 C13.8106261,27.9573439 14.0172901,28 14.2230244,28 C14.5119384,28 14.7988289,27.9158362 15.0488601,27.7505165 L19.2801399,24.9529877 C19.8447881,24.5796375 20.1985068,23.9784601 20.2505692,23.3035641 L20.5673191,19.2031651 C20.5940613,19.1810714 20.6209676,19.1594152 20.647655,19.1371575 C22.8137715,17.3303438 24.6911927,15.0662896 25.7984502,12.9255006 C27.9705822,8.72600816 28.0896369,4.33434457 27.9671916,2.09025124 Z M18.3753355,23.5843834 L14.3278603,26.260397 L13.8063605,22.8935734 C15.5169849,22.3906143 17.2091797,21.5850704 18.8213119,20.5059259 L18.6149761,23.1771271 C18.6021245,23.3437593 18.5147339,23.4922353 18.3753355,23.5843834 L18.3753355,23.5843834 Z M11.2717051,21.5403362 L6.45958957,16.7282366 C6.33681618,16.605409 6.28005057,16.4328705 6.3078865,16.2666758 C6.45094895,15.4112024 6.67325356,14.5968538 6.94844097,13.8297004 L14.1687198,21.0499552 C13.2473451,21.379993 12.4220563,21.5768673 11.7332675,21.6920387 C11.5667988,21.7197105 11.3944785,21.6631092 11.2717051,21.5403362 Z M4.82279326,9.3850448 L7.4939486,9.17870962 C6.41474584,10.7908365 5.60919924,12.4830256 5.10623847,14.1936444 L1.73945837,13.672201 L4.41553558,9.62468455 C4.50773868,9.48523194 4.65621519,9.39789632 4.82279326,9.3850448 L4.82279326,9.3850448 Z M19.5968898,17.8772168 C18.271648,18.9826112 16.9852344,19.7821395 15.7995005,20.3606764 L7.6389798,12.2001829 C8.39683891,10.6523136 9.32176828,9.36338863 10.1227211,8.40318903 C11.7947909,6.39862607 13.8743917,4.66935897 15.8283208,3.65873767 C19.6823663,1.66522154 23.7429665,1.55787037 25.8204345,1.67096371 C26.0954032,1.68594803 26.3140984,1.90464254 26.3290828,2.17966497 C26.4423406,4.2571261 26.3347703,8.31765809 24.3412475,12.1717455 C23.3306776,14.1256134 21.6014047,16.2051526 19.5968898,17.8772168 Z" id="Shape"></path>
                    <path d="M20.0000267,12 C21.0241675,11.9998932 22.048735,11.6098302 22.8284409,10.8297576 C23.5839861,10.0739105 24,9.06892462 24,8.00001329 C24,6.93110195 23.5839328,5.92611612 22.8284409,5.17026902 C21.2688156,3.60985697 18.731131,3.60996369 17.1716124,5.17026902 C16.4160672,5.92611612 16,6.93110195 16,8.00001329 C16,9.06892462 16.4161205,10.0739105 17.1716124,10.8297576 C17.9514784,11.6099903 18.9755125,12.0001066 20.0000267,12 Z M18.3029034,6.30214538 C18.770759,5.83401643 19.3853395,5.59997863 19.99992,5.59997863 C20.6145538,5.59997863 21.2291343,5.83401643 21.6969899,6.30214538 C22.150285,6.75565364 22.3998933,7.35862379 22.3998933,7.99995993 C22.3998933,8.64129606 22.150285,9.24431957 21.6969899,9.69782783 C20.7612787,10.6340324 19.2386146,10.633979 18.3028501,9.69782783 C17.849555,9.24431957 17.5998933,8.64134942 17.5998933,8.00001329 C17.5998933,7.35867716 17.8496083,6.75565364 18.3029034,6.30214538 Z" id="Shape"></path>
                    <path d="M0.759737629,23 C0.954186294,23 1.14863496,22.9258485 1.29694069,22.7774443 L3.77746543,20.2969667 C4.07417819,20.0002596 4.07417819,19.5192375 3.77746543,19.2225303 C3.48080332,18.9258232 2.99972142,18.9258232 2.70300866,19.2225303 L0.222534569,21.703008 C-0.0741781897,21.9997151 -0.0741781897,22.4807372 0.222534569,22.7774443 C0.370840298,22.9257979 0.565288963,23 0.759737629,23 Z" id="Path"></path>
                    <path d="M7.71690775,20.2830989 C7.33950511,19.9056337 6.72749038,19.9056337 6.35002331,20.2830989 L0.283100306,26.3500558 C-0.0943667687,26.727521 -0.0943667687,27.3394682 0.283100306,27.7169333 C0.471833843,27.9056659 0.719139858,28 0.966510308,28 C1.21388076,28 1.46125121,27.9056659 1.64992031,27.7168689 L7.71684331,21.6499764 C8.09437482,21.2725113 8.09437482,20.6605641 7.71690775,20.2830989 Z" id="Path"></path>
                    <path d="M7.70305931,24.2225303 L5.22253457,26.703008 C4.92582181,26.9997151 4.92582181,27.4807372 5.22253457,27.7774443 C5.37089095,27.9257979 5.56533961,28 5.75973763,28 C5.95413564,28 6.14863496,27.9258485 6.29694069,27.7774443 L8.77746543,25.2969667 C9.07417819,25.0002596 9.07417819,24.5192375 8.77746543,24.2225303 C8.48080332,23.9258232 7.99972142,23.9258232 7.70305931,24.2225303 Z" id="Path"></path>
                </g>
            </g>
        </g>
    </g>
</svg>